<svg viewBox="0 0 16 16">
<path style=" stroke:none;fill-rule:nonzero;fill:rgb(50.980395%,50.980395%,50.980395%);fill-opacity:1;" d="M 11.792969 7.414062 C 11.726562 7.382812 11.65625 7.351562 11.585938 7.320312 C 11.460938 5.042969 10.21875 3.742188 8.128906 3.730469 C 8.121094 3.730469 8.109375 3.730469 8.101562 3.730469 C 6.851562 3.730469 5.8125 4.261719 5.175781 5.230469 L 6.324219 6.019531 C 6.800781 5.292969 7.550781 5.140625 8.101562 5.140625 C 8.109375 5.140625 8.113281 5.140625 8.121094 5.140625 C 8.808594 5.144531 9.328125 5.34375 9.664062 5.734375 C 9.90625 6.019531 10.070312 6.410156 10.152344 6.90625 C 9.542969 6.800781 8.882812 6.769531 8.179688 6.808594 C 6.195312 6.925781 4.917969 8.082031 5.003906 9.691406 C 5.046875 10.507812 5.453125 11.210938 6.148438 11.667969 C 6.734375 12.054688 7.492188 12.246094 8.277344 12.203125 C 9.316406 12.144531 10.128906 11.75 10.699219 11.023438 C 11.128906 10.476562 11.402344 9.761719 11.523438 8.863281 C 12.019531 9.164062 12.382812 9.554688 12.585938 10.027344 C 12.929688 10.832031 12.953125 12.148438 11.875 13.226562 C 10.933594 14.167969 9.796875 14.574219 8.085938 14.589844 C 6.183594 14.574219 4.746094 13.964844 3.8125 12.777344 C 2.9375 11.664062 2.484375 10.058594 2.46875 8 C 2.484375 5.941406 2.9375 4.335938 3.8125 3.222656 C 4.746094 2.035156 6.183594 1.425781 8.085938 1.410156 C 10 1.425781 11.460938 2.039062 12.433594 3.230469 C 12.90625 3.816406 13.265625 4.554688 13.503906 5.414062 L 14.847656 5.054688 C 14.5625 3.996094 14.109375 3.085938 13.496094 2.332031 C 12.253906 0.800781 10.433594 0.015625 8.089844 0 L 8.078125 0 C 5.738281 0.015625 3.941406 0.804688 2.730469 2.339844 C 1.65625 3.707031 1.101562 5.609375 1.082031 7.996094 L 1.082031 8.003906 C 1.101562 10.390625 1.65625 12.292969 2.730469 13.660156 C 3.941406 15.195312 5.738281 15.984375 8.078125 16 L 8.089844 16 C 10.167969 15.984375 11.636719 15.441406 12.84375 14.234375 C 14.421875 12.65625 14.375 10.675781 13.855469 9.460938 C 13.480469 8.589844 12.769531 7.882812 11.792969 7.414062 Z M 8.203125 10.792969 C 7.332031 10.839844 6.429688 10.449219 6.386719 9.613281 C 6.351562 8.996094 6.828125 8.300781 8.257812 8.21875 C 8.421875 8.210938 8.582031 8.207031 8.738281 8.207031 C 9.257812 8.207031 9.746094 8.257812 10.1875 8.351562 C 10.023438 10.410156 9.054688 10.746094 8.203125 10.792969 Z M 8.203125 10.792969 "/></svg>
