<svg viewBox="0 0 17 16"><path style=" stroke:none;fill-rule:nonzero;fill:rgb(50.980395%,50.980395%,50.980395%);fill-opacity:1;" d="M 8.492188 7.132812 C 7.746094 5.605469 5.722656 2.757812 3.839844 1.355469 C 2.035156 0.0117188 1.347656 0.242188 0.898438 0.460938 C 0.375 0.710938 0.285156 1.558594 0.285156 2.054688 C 0.285156 2.550781 0.539062 6.136719 0.710938 6.734375 C 1.273438 8.710938 3.253906 9.382812 5.082031 9.164062 C 5.171875 9.148438 5.265625 9.136719 5.363281 9.125 C 5.273438 9.140625 5.171875 9.15625 5.082031 9.164062 C 2.40625 9.582031 0.0234375 10.609375 3.144531 14.277344 C 6.578125 18.027344 7.847656 13.476562 8.503906 11.164062 C 9.15625 13.46875 9.90625 17.859375 13.792969 14.277344 C 16.71875 11.164062 14.59375 9.582031 11.917969 9.164062 C 11.828125 9.15625 11.726562 9.140625 11.636719 9.125 C 11.734375 9.140625 11.828125 9.148438 11.917969 9.164062 C 13.746094 9.382812 15.734375 8.710938 16.289062 6.734375 C 16.457031 6.132812 16.714844 2.550781 16.714844 2.054688 C 16.714844 1.558594 16.625 0.710938 16.101562 0.460938 C 15.648438 0.242188 14.964844 0.0117188 13.160156 1.355469 C 11.261719 2.761719 9.238281 5.605469 8.492188 7.132812 Z M 8.492188 7.132812 "/></svg>
